# xmcd
#
# Track frame offsets:
#	180
#	13857
#	24453
#	41158
#	56436
#	72942
#	90769
#	107657
#	124722
#	138319
#	153647
#	170557
#	184859
#	199574
#	214451
#	229590
#	247005
#
# Disc length: 3484 seconds
#
# Revision: 4
# Processed by: cddbd v1.5.1PL0 Copyright (c) Steve Scherf et al.
# Submitted via: audiograbber 1.83.01
#
DISCID=ea0d9a11
DTITLE=1995-08 Country Radio - 1995-08 Country Radio
DYEAR=1995
DGENRE=Country
TTITLE0=John Michael Montgomery - No Man's Land
TTITLE1=Sammy Kershaw - Your Tattoo
TTITLE2=Lee Roy Parnell - When A Woman Loves A Man
TTITLE3=Lonestar - Tequila Talkin'
TTITLE4=Confederate Railroad - Bill's Laundromat, Bar, And Grill
TTITLE5=Shania Twain - The Woman In Me
TTITLE6=Radney Foster - If It Were Me
TTITLE7=Hank Williams Jr. - Daytona Nights
TTITLE8=Hank Williams Jr.- - Wild Thing
TTITLE9=Billy Montana - Rain Through The Roof
TTITLE10=Travis Tritt - Sometimes She Forgets
TTITLE11=Carlene Carter - Hurricane
TTITLE12=Aaron Tippin - That's As Close As I'll Get To Lovin' You
TTITLE13=Neal Mccoy - If I Was A Drinkin' Man
TTITLE14=David Ball - Honky Tonk Healin'
TTITLE15=Shelby Lynne - I'm Not The One
TTITLE16=Baker and Myers - These Arms Won't Let Your Heart Break
EXTD=
EXTT0=
EXTT1=
EXTT2=
EXTT3=
EXTT4=
EXTT5=
EXTT6=
EXTT7=
EXTT8=
EXTT9=
EXTT10=
EXTT11=
EXTT12=
EXTT13=
EXTT14=
EXTT15=
EXTT16=
PLAYORDER=
